<svg xmlns="http://www.w3.org/2000/svg" version="1.1" xmlns:xlink="http://www.w3.org/1999/xlink" xmlns:svgjs="http://svgjs.dev/svgjs" width="1440" height="560" preserveAspectRatio="none" viewBox="0 0 1440 560"><g mask="url(&quot;#SvgjsMask1152&quot;)" fill="none"><path d="M0 0L138.27 0L0 242.13z" fill="rgba(255, 255, 255, .1)"></path><path d="M0 242.13L138.27 0L479.52 0L0 297.52z" fill="rgba(255, 255, 255, .075)"></path><path d="M0 297.52L479.52 0L689.17 0L0 333.21z" fill="rgba(255, 255, 255, .05)"></path><path d="M0 333.21L689.17 0L747.2099999999999 0L0 346.81z" fill="rgba(255, 255, 255, .025)"></path><path d="M1440 560L1246.06 560L1440 280.89z" fill="rgba(0, 0, 0, .1)"></path><path d="M1440 280.89L1246.06 560L1060.4299999999998 560L1440 279.90999999999997z" fill="rgba(0, 0, 0, .075)"></path><path d="M1440 279.90999999999997L1060.43 560L577.48 560L1440 245.14999999999998z" fill="rgba(0, 0, 0, .05)"></path><path d="M1440 245.14999999999998L577.48 560L281.05 560L1440 73.15999999999997z" fill="rgba(0, 0, 0, .025)"></path></g><defs><mask id="SvgjsMask1152"><rect width="1440" height="560" fill="#ffffff"></rect></mask></defs></svg>